<svg version="1.1" id="Layer_1" xmlns="http://www.w3.org/2000/svg" x="0" y="0" viewBox="0 0 132 111" xml:space="preserve">
  <style>
    .st0,.st1{fill:#fff}.st1{fill-rule:evenodd;clip-rule:evenodd}
  </style>
  <path class="st0" d="M67.2 20c-3.1 4.3-3.6 6.9-4.1 9.6-.3 1.8-.3 3.4 0 4.8.1.5.9.5.9-.1.2-1.7.7-4.8 1.8-7 1.9-3.9 4.1-6.7 6.4-6.6 2.3.2 3.4 2.7 3.6 6.1.2 3.2-.9 12.6-3 18.2-1 2.8-1.9 4.9-3 6.3 3.6.7 7 1.5 10.1 2.2.2.1.3.1.4.1 1.8-2.4 3.3-5.5 4.5-9.7 2.5-8.6 2.7-14.9.6-21.4-2.1-6.5-7.7-7.3-9.3-7.2-1.4.2-5.8.4-8.9 4.7z"/>
  <path class="st0" d="M51.9 31c1.7 2.1 2.7 5.3 2.7 8.8-.1 3.3-1.1 6.3-2.9 8.8 1.5.1 3 .3 4.4.5 1.6.2 3.2.5 4.7.7-.6-1.7-.9-3.9-1-6.3-.3-5.7.2-13.1 1.8-17.1 1.7-4.2 4.1-8.4 8.5-11.7.4-.3.1-.8-.4-.8-2.5-.3-7.1-.1-12.4 4.7-3.1 2.8-5.4 7-6.8 11.2.6.3 1.1.8 1.4 1.2z"/>
  <path class="st0" d="M22.7 33.3c.1.2.3.3.4.3.1 0 .2 0 .3-.1.6-.4 1.9-1.1 3.9-1.6 1.2-.3 2.8-.5 4.5-.5 2.3 0 4.5.4 5.8 1.3 2.1 1.6 4 4.5 3.7 8.1-.3 3.4-1.4 6.1-3.4 7.9 2.4-.2 4.9-.4 7.4-.4 1.3 0 2.5.1 3.7.1l.4-.4c4-4.5 3.7-12.1.8-15.5-2-2.4-6.4-5.4-13.1-5.4-2.7 0-5.8.5-9.2 1.7h-.1c-.2 0-.3-.2-.2-.3L30 21c.1-.3.3-.4.5-.4h.1c1.4.3 5.6 1 9.9 1 1.5 0 3.1-.1 4.5-.3 6.3-1 10.9-.8 10.1-7.7 0-.2-.2-.3-.4-.3h-.2c-1.6.6-7.8 2.6-20.4 2.6-1.8 0-3.9-.1-6-.2H28c-.3 0-.5.2-.6.5l-5.3 15.6c-.1.2-.1.4 0 .6l.6.9zM21.5 52.4c2.3-.9 4.7-1.7 7.3-2.3 0 0-.1 0-.1-.1-1.7-1.6-2-5.4.5-7.1.2-.1.2-.3.2-.5-.3-.8-1.2-3.9-4.3-3.9h-.2c-3.9.2-6.6 2.6-6.5 6.8 0 3.5 1.3 5.7 3.1 7.1zM122.2 49.9v.1s0 .2-.1.3c-.1.2-.1.6-.3 1-.3.8-.8 2.1-1.9 3.5-1 1.3-2.7 2.7-4.8 3.7-2.1 1-4.7 1.8-7.6 2.2-1.4.2-2.9.3-4.5.4h-2.4c-.8 0-1.6-.1-2.4-.1-3.3-.2-6.7-.6-10.1-1.2-3.5-.6-7-1.4-10.6-2.1-3.6-.8-7.2-1.6-10.8-2.3-1.8-.3-3.6-.6-5.5-.9-1.8-.3-3.6-.6-5.4-.8-.4-.1-.9-.1-1.4-.2-.4-.1-.9-.1-1.3-.2-.9-.1-1.8-.2-2.6-.2-1.7-.1-3.5-.2-5.2-.2-1.7 0-3.4 0-5 .1s-3.3.2-4.8.4c-1.6.2-3.1.4-4.5.6-1.5.3-2.8.5-4.2.8-2.7.6-5 1.4-7.1 2.3-2 .8-3.7 1.8-5.1 2.6-1.4.8-2.3 1.7-2.9 2.2-.3.3-.6.5-.7.7-.2.2-.3.2-.3.2-.1.1-.3.1-.4 0-.1-.1-.1-.3 0-.4 0 0 .1-.1.2-.3.2-.2.4-.5.6-.8.3-.3.7-.7 1.1-1.2.5-.5 1-.9 1.7-1.5 1.3-1 3-2.2 5-3.3 2-1.1 4.5-2.1 7.2-2.9 1.4-.4 2.8-.8 4.3-1.2 1.5-.3 3-.6 4.7-.9 1.6-.2 3.3-.4 5-.6 1.7-.1 3.5-.2 5.2-.2s3.6.1 5.4.2c.9.1 1.8.2 2.8.2.5.1.9.1 1.4.2.5.1.9.1 1.4.2 3.7.5 7.3 1.1 11 1.8s7.3 1.6 10.9 2.4c3.6.8 7 1.7 10.4 2.4 1.7.4 3.4.6 5 .9s3.3.5 4.8.6c.8.1 1.5.2 2.3.2.7.1 1.5.1 2.3.1 1.5.1 2.9 0 4.2-.1 2.7-.2 5.1-.7 7.1-1.6 2-.8 3.6-1.9 4.6-3.1 1.1-1.1 1.7-2.2 2-3 .2-.4.3-.7.3-.9.1-.1.1-.2.1-.2v-.1c.1-.2.2-.3.4-.2.4.1.5.3.5.4zM116 94.8l-.2.2c-.1.1-.3.4-.5.6-.4.6-1.1 1.4-2.1 2.2-1 .8-2.4 1.7-4.1 2.4-1.7.7-3.8 1.2-6 1.5-1.2.1-2.3.2-3.6.2h-1c-.3 0-.6 0-.9-.1-.6-.1-1.3-.1-1.9-.1-2.6-.2-5.3-.5-8.1-1-1.4-.3-2.8-.5-4.2-.8-1.4-.3-2.8-.6-4.2-1-2.8-.7-5.7-1.4-8.6-2s-5.8-1.2-8.7-1.7c-1.4-.3-2.9-.5-4.3-.7l-4.2-.6c-2.7-.3-5.4-.5-7.9-.5-1.3-.1-2.5 0-3.7 0-1.2 0-2.4.1-3.5.1-1.1.1-2.1.2-3.1.3-1 .1-1.9.2-2.8.3-1.8.2-3.3.5-4.6.7-1.3.3-2.3.5-2.9.6s-1 .3-1 .3c-.1 0-.2-.1-.2-.1 0-.1 0-.2.1-.2 0 0 .4-.2 1-.4.7-.3 1.6-.6 2.9-.9 1.3-.4 2.8-.8 4.6-1.2 1.8-.4 3.8-.7 6.1-.9 1.1-.1 2.3-.2 3.5-.3 1.2-.1 2.5-.1 3.8-.1 2.6-.1 5.3.1 8.1.4.4.1.7.1 1 .1s.7.1 1 .1l2.1.3c1.4.2 2.9.4 4.3.7 2.9.5 5.8 1.1 8.8 1.7l8.7 2.1c1.4.4 2.8.7 4.2 1 1.4.3 2.8.6 4.1.9 2.7.5 5.3.9 7.9 1.2.6.1 1.3.1 1.8.2.3 0 .6.1.9.1.2 0 .3 0 .5.1h.4c1.2.1 2.3.1 3.4-.1 2.2-.2 4.1-.5 5.8-1.1 1.7-.6 3-1.3 4.1-2s1.7-1.5 2.2-1.9c.2-.3.4-.5.5-.6.1-.2.2-.2.2-.2.1-.1.2-.1.3-.1v.3z"/>
  <path class="st1" d="M96.1 35c.6-.1 1.3 0 1.9.1.3 0 .5-.1.5-.4-.1-1.3-.9-1.8-2-1.9-1.2-.1-2.5.7-2.5 2.3-.1 1 .6 2.1 2 2.3.7.1 2-.1 2.3-.9.1-.2-.1-.5-.4-.3-.3.3-.7.4-1.3.4-.7-.1-1-.5-1-.9s.2-.6.5-.7zm-.6-.6c-.1-.7.3-1.2.8-1.2.4 0 .7.4.7 1 0 .2-.1.3-.2.3-.3 0-.5-.1-.7 0-.1.1-.2.1-.3.1-.2.1-.3 0-.3-.2zM88.8 36.7c-.3.1-.3.2-.1.4.1.1.5.2.9.2.2 0 .3-.2.2-.3-.1-.1 0-.2.1-.3.3-.6.5-1.2.8-1.8.1-.1.2-.2.2 0 .3.5.6 1 .8 1.6.1.3-.1.3-.2.4-.2.2-.1.4.4.4.5.1.9.1 1.5 0 .3 0 .5-.1.6-.3.1-.1 0-.2-.2-.2-.1 0-.2-.1-.2-.1-.7-1.1-1.3-2.3-1.9-3.4-.1-.2-.3-.4-.5-.4s-.5 0-.7.1c-.3.1-.4.2-.3.5.1.1.1.2.2.3.1.2.1.4-.1.6-.6 1.3-1.1 2.2-1.5 2.3zM103.5 32.9c-.1-.1-.4-.1-.7-.1-1 0-2.1 0-2.9-.1-.6-.1-1 .2-1.1.7-.1.2-.1.5-.1.7.1.2.5.3.6-.3.1-.3.3-.4.7-.3.3.1.4.2.4.4 0 .7-.1 1.4 0 2 0 .2-.1.4-.3.5-.3.1-.4.2-.2.4.1.1.3.2.6.2.6 0 1.2 0 1.7-.1.2 0 .4-.1.5-.3s.1-.3-.3-.4c-.2-.1-.3-.3-.3-.5v-1.9c0-.2.1-.4.4-.4h.3c.2 0 .3.2.3.3.1.2.3.4.4.4.2.1.4-.2.3-.5.1-.1 0-.4-.3-.7z"/>
  <path class="st0" d="M106 35.9s.1 0 .3-.1c.2 0 .4-.1.7-.1.3 0 .7-.1 1 0 .4 0 .9 0 1.4.1.3 0 .5.1.8.1.3.1.6.1.8.1.6.1 1.2.2 1.8.4l.9.3.9.3c.3.1.6.3.9.4s.6.3.9.5c.2.1.3.2.5.3l.5.3c.2.1.3.2.4.3.2.1.3.2.4.3.3.2.5.4.8.7.1.1.3.2.4.4.1.1.2.3.3.4.2.3.4.5.6.8.2.3.4.5.5.8.1.1.2.3.2.4s.1.3.2.4c.2.3.2.5.3.8.1.1.1.3.2.4.1.1.1.3.1.4.1.2.1.5.2.7.1.4.1.8.2 1.1.1.6.1.9.1.9 0 .1-.1.2-.2.2s-.2-.1-.2-.2c0 0-.1-.3-.2-.9-.1-.3-.2-.6-.3-1l-.3-.6c-.1-.1-.1-.2-.1-.3-.1-.1-.1-.2-.2-.3-.1-.2-.2-.4-.4-.6-.2-.2-.3-.5-.4-.7-.2-.2-.3-.5-.5-.7l-.3-.3-.3-.3-.3-.3c-.1-.1-.2-.2-.4-.3-.2-.2-.5-.4-.7-.6-.1-.1-.3-.2-.4-.3s-.3-.2-.4-.3c-.3-.2-.5-.3-.8-.5-.3-.2-.6-.3-.8-.4-.3-.2-.6-.3-.9-.4l-.9-.3-.9-.3c-.3-.1-.6-.2-.8-.3-.3-.1-.6-.2-.8-.2-.5-.1-1-.3-1.6-.4-.5-.1-.9-.2-1.3-.3-.4-.1-.7-.1-1-.2-.6-.1-.9-.1-.9-.1-.1 0-.2-.1-.2-.2.1-.3.1-.3.2-.3z"/>
  <g>
    <path class="st0" d="M88.6 41.5c.3-.3.7-.4 1.2-.4.6 0 1 .3 1 .7 0 .3-.2.5-.4.6.3.1.5.3.5.6 0 .5-.5.8-1.1.8-.5 0-.9-.2-1.3-.4l.4-.5c.2.2.5.3.8.3.3 0 .4-.2.4-.3 0-.2-.2-.3-.5-.3h-.3v-.5h.3c.3 0 .4-.1.4-.3s-.2-.3-.4-.3c-.3 0-.6.1-.7.3l-.3-.3zM91.5 43.1c0-.6.5-.9 1.1-.9.3 0 .5.1.7.1v-.1c0-.3-.2-.5-.6-.5-.3 0-.5.1-.8.2l-.2-.6c.3-.2.6-.2 1.1-.2.4 0 .7.1.9.3.2.2.3.5.3.9v1.6h-.7v-.3c-.2.2-.5.4-.8.4-.6-.1-1-.4-1-.9zm1.8-.2v-.1c-.2-.1-.3-.1-.5-.1-.3 0-.5.2-.5.4s.2.3.4.3c.3 0 .6-.2.6-.5zM94.8 42.3c0-.8.1-1.7 1.2-1.9l1.5-.3.1.6-1.5.3c-.5.1-.7.4-.7.7.1-.2.4-.5 1-.5.7 0 1.3.6 1.3 1.4 0 .8-.6 1.4-1.5 1.4-.9-.1-1.4-.7-1.4-1.7zm2.2.3c0-.4-.3-.7-.7-.7-.4 0-.7.3-.7.7s.3.7.7.7c.4-.1.7-.4.7-.7zM98.3 42.5c0-.8.6-1.5 1.5-1.5s1.5.6 1.5 1.5c0 .8-.6 1.5-1.5 1.5-.8-.1-1.5-.7-1.5-1.5zm2.3 0c0-.4-.3-.8-.7-.8-.5 0-.7.4-.7.8s.3.8.7.8c.4-.1.7-.4.7-.8zM104.2 41.8h-.8v2.1h-.8v-2.1h-.8v-.7h2.5l-.1.7zM104.8 41.1h.8v.9h.6c.6 0 1.1.3 1.1.9 0 .6-.4.9-1.1.9h-1.4v-2.7zm.8 1.5v.6h.5c.3 0 .4-.1.4-.3s-.2-.3-.4-.3h-.5zm2-1.5h.8v2.8h-.8v-2.8zM89.5 47c0 .3.1.5.4.5.2 0 .4-.1.5-.2v-1.2h.8v2.8h-.8v-1c-.2.1-.5.2-.7.2-.6 0-1-.3-1-.9v-1.1h.8v.9zM91.9 47.5c0-.8.6-1.5 1.4-1.5.9 0 1.4.7 1.4 1.5v.2h-1.9c.1.4.3.5.7.5.3 0 .5-.1.7-.3l.5.4c-.3.3-.6.5-1.2.5-.9.2-1.6-.4-1.6-1.3zm2-.2c-.1-.4-.3-.6-.6-.6s-.5.2-.6.6h1.2zM95.3 47.5c0-.8.6-1.5 1.5-1.5.5 0 .8.2 1.1.5l-.5.5c-.2-.2-.3-.3-.6-.3-.4 0-.7.4-.7.8s.3.8.7.8c.3 0 .5-.1.6-.3l.5.5c-.3.3-.6.5-1.2.5-.8 0-1.4-.6-1.4-1.5zM100.7 46.8h-.8v2.1h-.8v-2.1h-.8v-.7h2.5l-.1.7zM103.9 49h-.8v-1h-1v1h-.8v-2.8h.8v1.1h1v-1.1h.8V49zM104.7 47.5c0-.8.6-1.5 1.5-1.5s1.5.6 1.5 1.5c0 .8-.6 1.5-1.5 1.5s-1.5-.6-1.5-1.5zm2.2 0c0-.4-.3-.8-.7-.8-.5 0-.7.4-.7.8s.3.8.7.8c.4 0 .7-.3.7-.8zM108.3 47.5c0-.8.6-1.5 1.5-1.5.5 0 .8.2 1.1.5l-.5.5c-.2-.2-.3-.3-.6-.3-.4 0-.7.4-.7.8s.3.8.7.8c.3 0 .5-.1.6-.3l.5.5c-.3.3-.6.5-1.2.5-.8 0-1.4-.6-1.4-1.5zM113.8 46.8h-.8v2.1h-.8v-2.1h-.8v-.7h2.5l-.1.7zM117 49h-.8v-1.6l-1.1 1.6h-.7v-2.8h.8v1.6l1.1-1.6h.7V49zM88.7 51.2h.8v1.2l1-1.2h.9l-1 1.2 1.2 1.6h-.8l-.7-1-.4.4v.6h-.8l-.2-2.8zM91.9 53.2c0-.6.5-.9 1.1-.9.3 0 .5.1.7.1v-.1c0-.3-.2-.5-.6-.5-.3 0-.5.1-.8.2l-.2-.6c.3-.2.6-.2 1.1-.2.4 0 .7.1.9.3.2.2.3.5.3.9V54h-.8v-.3c-.2.2-.5.4-.8.4-.5-.1-.9-.3-.9-.9zm1.8-.2v-.2c-.2-.1-.3-.1-.5-.1-.3 0-.5.2-.5.4s.2.3.4.3c.4.1.6-.1.6-.4zM96 52.1c0 .3.1.5.4.5.2 0 .4-.1.5-.2v-1.2h.8V54H97v-1c-.2.1-.5.2-.7.2-.6 0-1-.3-1-.9v-1.1h.7v.9zM98.5 52.6c0-.8.6-1.5 1.4-1.5.9 0 1.4.7 1.4 1.5v.2h-1.9c.1.4.3.5.7.5.3 0 .5-.1.7-.3l.5.4c-.3.3-.6.5-1.2.5-1 .2-1.6-.4-1.6-1.3zm2-.2c-.1-.4-.3-.6-.6-.6s-.5.2-.6.6h1.2zM101.8 52.6c0-.8.6-1.5 1.5-1.5.5 0 .8.2 1.1.5l-.5.5c-.2-.2-.3-.3-.6-.3-.4 0-.7.4-.7.8s.3.8.7.8c.3 0 .5-.1.6-.3l.5.5c-.3.3-.6.5-1.2.5-.7 0-1.4-.7-1.4-1.5zM107.3 51.9h-.8V54h-.8v-2.1h-.8v-.7h2.5v.7h-.1zM109.5 51.2c.6 0 .9.3.9.7 0 .3-.2.5-.4.6.3.1.5.3.5.7 0 .5-.4.8-1 .8H108v-2.8h1.5zm-.3 1.1c.2 0 .3-.1.3-.3s-.1-.3-.3-.3h-.6v.5h.6zm.1 1.1c.3 0 .4-.1.4-.3s-.1-.3-.4-.3h-.6v.6h.6zM111 53.2c0-.6.5-.9 1.1-.9.3 0 .5.1.7.1v-.1c0-.3-.2-.5-.6-.5-.3 0-.5.1-.8.2l-.2-.6c.3-.2.6-.2 1.1-.2.4 0 .7.1.9.3.2.2.3.5.3.9V54h-.8v-.3c-.2.2-.5.4-.8.4-.5-.1-.9-.3-.9-.9zm1.9-.2v-.2c-.2-.1-.3-.1-.5-.1-.3 0-.5.2-.5.4s.2.3.4.3c.3.1.6-.1.6-.4z"/>
  </g>
  <g>
    <path class="st1" d="M30.1 70.8c-1.3-.2-2.7.1-4 .2-1.1-.1-1.2-.7-1.3-1.5v-5.2c.1-.8.5-1.5 1.5-1.6.6 0 1.3 0 1.9.1 1.3.2 2.3 1 3.4 2.2.6.6 1.3.4 1.7-.4.2-.3.1-.7 0-1.2-.1-.7-.3-1.4-.8-2.1-.3-.4-.9-.4-1.5-.3-.8.2-5.2.1-8.7 0-1.3 0-2.4-.3-3.1-.1-1.6.3-1 1.4-.4 1.5.8.2 1.3 1.2 1.3 2.1v11.7c-.1 1.4-.6 2.3-1.7 2.8-.6.1-.7.4-.4.8.1.2.4.3.8.5 3.7-.1 7.3-.2 11.2 0 1.5.1 4.5-2 4.1-5.3-.1-2.7-2-3.9-4-4.2zm-.8 5.6c-.3 1.5-1.2 2-2 2.2-.4.1-.9.1-1.4 0-.9-.2-.9-1.2-1.2-2.2v-2.9c.1-.6.4-1.2 1.2-1.3.4-.1.7-.1 1.2 0 1.4.2 2 1.3 2.3 2.5.1.6 0 1.2-.1 1.7zM46.1 78c.3-.6-.3-1.3-.9-.8-.9.6-1.9 1.1-3.3.9-1.9-.3-2.7-1.3-2.8-2.4-.1-.7.5-1.3 1.4-1.3 1.6-.1 3.3.1 4.9.1.7 0 1.2-.2 1.2-1-.1-3.4-2.5-4.8-5.3-5-3.1-.2-6.4 1.9-6.6 5.9-.1 2.7 1.6 5.7 5.3 6 2 .2 5.2-.3 6.1-2.4zm-7.2-5.1c-.2-1.8.8-3 2.2-3 1 0 1.9 1 1.9 2.6 0 .5-.3.8-.6.8-.7 0-1.3-.2-1.8 0-.3.1-.5.2-.7.3-.7.1-1-.3-1-.7zm7.5 6.1c-.7.2-.7.6-.2 1.2.3.3 1.4.5 2.5.4.6-.1.7-.4.4-.8-.2-.3 0-.5.2-.8.8-1.6 1.5-3.3 2.3-4.9.2-.4.4-.4.6-.1.8 1.4 1.5 2.8 2.3 4.2.3.7-.1.8-.4 1-.5.5-.2 1.1.9 1.2 1.3.1 2.6.1 3.9 0 .8-.1 1.5-.4 1.6-.8.1-.3-.1-.5-.4-.5-.3 0-.4-.1-.5-.3-1.8-3-3.6-6.1-5.2-9.2-.3-.5-.8-1-1.3-1-.6.1-1.3-.1-1.9.2-.7.3-1.1.6-.7 1.3.2.2.3.5.4.7.2.5.1 1-.2 1.5-2 4.1-3.4 6.5-4.3 6.7zM52 68h1.8c.3-.7.5-1.4.9-2.1.2-.4.6-.6 1 .1 2.4 4 4.7 8.1 6.9 12.2.5.8 0 .8-.4 1-.5.3-.4 1 1.2 1 1.5.1 3.6-.1 5.3-.2.9-.1 1-.8.3-1-.5-.2-.6-.4-.7-.5-3.3-5.7-6.5-11.4-9.7-17-.4-.7-1-.9-1.6-.8-1.1.1-2.2.1-3.3.3-1 .2-1 .5-.3 1 .6.4.7 1.2.5 1.9-.6 1.3-1.2 2.7-1.9 4.1zm20.5 12.5c1 .1 2-.2 3-.9.5-.4 1.1-.6 1.5-.1.4.5.7 1.2 1.8 1.1 1.5-.1 2.8-.9 3.3-1.9.3-.5-.2-.3-.7-.4-.8-.2-.8-1.3-.8-2.1-.1-1.5.2-3.1-.1-4.6-.2-1.8-2.5-2.8-4.8-2.8-2.2-.1-4.3 1-5.4 2-1.2 1 .2 2.7 1.7 1.4.6-.6.8-1.6 1.6-2 1.4-.7 2.4 0 2.5 1.3.1.4.1.8.1 1.3-.1.9-.6 1.3-1.2 1.4-.5-.2-1.3-.3-2-.2-2.4.3-3.7 1.7-3.8 3-.1 1.5.7 3.2 3.3 3.5zm.9-4.2c.2-.9.7-1.3 1.5-1.4.4-.1.6-.2.8-.4.4-.3.7-.3.7.3.1.8.2 1.7.1 2.6-.2 1.1-.8 1.5-1.6 1.5-1-.1-1.4-.7-1.5-1.4-.1-.4-.1-.8 0-1.2zM84 80.2c1.4.2 2.7.1 4.1 0 .4 0 .8-.2 1.2-.5.3-.2.5-.6-.2-.9-.6-.3-.8-.8-.8-1.4v-1.9c0-.3 0-.5.5-.5.3 0 .5.1.8.4l3.3 4.2c.1.2.3.5.9.5 1.2.1 2.5-.1 3.7-.2.3 0 .8.1 1-.3.3-.4.1-.9-.5-1-.7-.2-1.1-.4-1.3-.6l-4.1-4.1c-.3-.4-.3-.7 0-1 .8-.9 1.6-1.8 2.7-2.7.4-.3.8-.3 1.4-.5.5-.2.7-.8-.6-1-1.3-.2-2.6-.2-3.9 0-.8.1-.6.6-.1.8.3.2.5.4.2 1-1.1 1.8-1.8 2.6-2.5 3-1 .6-1.3.1-1.3-.3 0-.9 0-1.8.1-2.7.1-.4.3-.6.7-.8.6-.3.4-.9-.6-1-1.6-.2-3.2-.3-4.8-.1-.9.1-1.2.8-.4 1.2.5.3.7.6.7 1.2.1 2.1.2 4.2.1 6.3-.1.9-.5 1.5-1.1 1.7-.9.3-.8 1 .8 1.2zm25.4-11.3c-.3-.3-.9-.3-1.7-.3-2.8.1-5.5.1-7.7-.1-1.7-.1-2.6.6-2.8 1.9-.1.6-.2 1.2-.1 1.7.1.4 1.2.6 1.6-.6.2-.6.8-.9 1.9-.8.6.1 1.1.4 1.1 1 .1 1.8-.1 3.6-.1 5.3 0 .5-.2 1.1-.8 1.4-.7.3-1 .5-.6 1 .2.3.8.5 1.5.5 1.5.1 3 0 4.5-.1.6-.1 1.1-.2 1.4-.6.3-.5.2-.8-.7-1.2-.6-.2-.8-.8-.8-1.4-.1-1.7-.1-3.3 0-5 0-.5.1-1 .9-1.1.3 0 .6 0 .8.1.5.1.7.4.8.8.1.4.6.9 1.2 1 .4.1.9-.4.8-1.4 0-.4-.3-1.3-1.2-2.1zm-2.5 15.5c-.7 3.1-4.1 4.4-9.1 4.3-5.2-.1-9.4-1.9-13-4.5-1.5-1.1-3.5-1.8-5.8-1.8-11.1-.1-22.3 0-33.4 0 1.6 2.7 4.9 4 12 3.1 7.4-1 14.9-1.4 22.4-1.8 1.4-.1 3.1.3 4.9 1.5 4.8 3.3 9.3 6.4 13.5 6.2 4.7-.3 8-2.5 9.1-6.8.1-.9-.5-.7-.6-.2z"/>
    <path class="st1" d="M100.2 84.7c-1.5.7-1.5 1.9.4 2.2 2.1.4 4.7-.7 5-2.8.2-1.2-2-2.6-5.9-2.2-4.9.5-7.3 1.7-8.9 3.2-.2.2 0 .3.2.2 1.6-1.3 3.6-2.3 6.9-2.2 2 0 3.4 1 2.3 1.6z"/>
  </g>
</svg>
