<?xml version="1.0" encoding="utf-8"?>
<!-- Generator: Adobe Illustrator 24.1.2, SVG Export Plug-In . SVG Version: 6.00 Build 0)  -->
<svg version="1.1" id="Layer_1" xmlns="http://www.w3.org/2000/svg" xmlns:xlink="http://www.w3.org/1999/xlink" x="0px" y="0px"
	 viewBox="0 0 51.2 51.3" style="enable-background:new 0 0 51.2 51.3;" xml:space="preserve">
<style type="text/css">
	.st0{fill:#002172;}
</style>
<g>
	<g>
		<g>
			<path class="st0" d="M13.7,24.9c0-0.5-0.4-0.9-0.9-0.9C6.7,24,1.7,19,1.7,12.9c0-6.1,5-11.1,11.1-11.1s11.1,5,11.1,11.1
				c0,1.7-0.4,3.3-1.1,4.8c-0.2,0.4,0,0.9,0.4,1.1c0.4,0.2,0.9,0,1.1-0.4c0.8-1.7,1.3-3.6,1.3-5.6c0-7.1-5.7-12.8-12.8-12.8
				S0,5.9,0,12.9s5.7,12.8,12.8,12.8C13.3,25.7,13.7,25.3,13.7,24.9z"/>
			<path class="st0" d="M51.1,40.9c-0.8-2.1-1-3.6-1.2-5.1c-0.3-2-0.5-4.1-2.4-7.2l-5.1-8.7c-0.8-1.4-2.9-2-4.4-1.2
				c-0.5,0.3-0.8,0.6-1.1,1.1c-1.2-1.6-3.4-2.1-5.2-1.1c-0.8,0.5-1.4,1.2-1.8,2.1c-1.2-1-3-1.1-4.4-0.3c-0.8,0.5-1.4,1.2-1.8,2.1
				l-7.5-10.2c-1.4-2-3.3-2.6-5-1.6c-0.9,0.5-1.4,1.2-1.7,2.1c-0.3,1-0.1,2.1,0.5,3.1l11.6,18.3c0.3,0.4,0.8,0.5,1.2,0.3
				c0.4-0.3,0.5-0.8,0.3-1.2L11.6,15.2c-0.4-0.6-0.5-1.3-0.3-1.8c0.1-0.5,0.4-0.8,0.9-1.1c0.9-0.5,1.9-0.2,2.8,1.1L24.1,26
				c0.3,0.4,0.8,0.5,1.2,0.2c0.4-0.2,0.5-0.8,0.3-1.1c-0.3-0.5-0.4-1.1-0.2-1.7c0.2-0.6,0.5-1.1,1.1-1.4c1.1-0.6,2.5-0.3,3.1,0.8
				l0.8,1.3c0.2,0.4,0.8,0.5,1.2,0.3c0.4-0.2,0.5-0.8,0.3-1.2l0,0c-0.3-0.5-0.4-1.1-0.2-1.7c0.2-0.6,0.5-1.1,1.1-1.4
				c1.1-0.6,2.5-0.3,3.1,0.8l1.2,2c0.2,0.4,0.8,0.5,1.2,0.3c0.4-0.2,0.5-0.8,0.3-1.2l0,0c-0.2-0.3-0.2-0.7-0.1-1.1
				c0.1-0.4,0.3-0.7,0.7-0.9c0.6-0.4,1.7-0.1,2.1,0.5l5.1,8.7c1.7,2.9,1.9,4.6,2.2,6.6c0.2,1.4,0.4,2.9,1.1,4.8l-15,8.5
				c-5.5-5.9-15.9-11.3-21.1-12.6c-0.9-0.2-2.6-0.8-2.9-0.9l0.1-0.4c0.3-1.2,2.9-2.7,4.1-2.3l3.7,1c0.5,0.1,0.9-0.2,1-0.6
				c0.1-0.5-0.2-0.9-0.6-1l-3.7-1c-2.1-0.6-5.7,1.5-6.2,3.5l-0.1,0.5c0,0,0,0.1,0,0.1c-0.1,0.8,0.2,1.5,1,1.9c0,0,0.1,0,0.1,0
				c0.1,0,2,0.6,3.1,0.9c5.1,1.4,15.5,6.8,20.7,12.6c0.2,0.2,0.4,0.3,0.6,0.3c0.1,0,0.3,0,0.4-0.1L50.8,42
				C51.1,41.7,51.3,41.3,51.1,40.9z"/>
			<path class="st0" d="M12.8,7c3.3,0,6,2.7,6,6c0,0.5,0.4,0.9,0.9,0.9s0.9-0.4,0.9-0.9c0-4.2-3.4-7.7-7.7-7.7s-7.7,3.4-7.7,7.7
				c0,2.7,1.5,5.3,3.9,6.7c0.1,0.1,0.3,0.1,0.4,0.1c0.3,0,0.6-0.2,0.7-0.4c0.2-0.4,0.1-0.9-0.3-1.2c-1.9-1.1-3-3.1-3-5.2
				C6.8,9.6,9.5,7,12.8,7z"/>
		</g>
	</g>
</g>
</svg>
